{
    "accessors" : [
        {
            "bufferView" : 0,
            "componentType" : 5121,
            "count" : 186,
            "max" : [
                63
            ],
            "min" : [
                0
            ],
            "type" : "SCALAR"
        },
        {
            "bufferView" : 1,
            "componentType" : 5126,
            "count" : 64,
            "max" : [
                15.500009536743164,
                -93.0,
                15.499996185302734
            ],
            "min" : [
                -15.49998950958252,
                -93.0,
                -15.500003814697266
            ],
            "type" : "VEC3"
        },
        {
            "bufferView" : 2,
            "componentType" : 5126,
            "count" : 64,
            "max" : [
                0.0,
                1.0,
                -0.0
            ],
            "min" : [
                0.0,
                0.999969482421875,
                -0.0
            ],
            "type" : "VEC3"
        },
        {
            "bufferView" : 3,
            "componentType" : 5126,
            "count" : 64,
            "max" : [
                0.7046089172363281,
                0.7046085000038147
            ],
            "min" : [
                0.29539117217063904,
                0.2953941822052002
            ],
            "type" : "VEC2"
        },
        {
            "bufferView" : 4,
            "componentType" : 5123,
            "count" : 64,
            "max" : [
                0,
                0,
                0,
                0
            ],
            "min" : [
                0,
                0,
                0,
                0
            ],
            "type" : "VEC4"
        },
        {
            "bufferView" : 5,
            "componentType" : 5126,
            "count" : 64,
            "max" : [
                0.0,
                0.0,
                0.0,
                0.0
            ],
            "min" : [
                0.0,
                0.0,
                0.0,
                0.0
            ],
            "type" : "VEC4"
        },
        {
            "bufferView" : 6,
            "componentType" : 5121,
            "count" : 186,
            "max" : [
                63
            ],
            "min" : [
                0
            ],
            "type" : "SCALAR"
        },
        {
            "bufferView" : 7,
            "componentType" : 5126,
            "count" : 64,
            "max" : [
                15.500009536743164,
                -83.21430206298828,
                15.499996185302734
            ],
            "min" : [
                -15.49998950958252,
                -83.21430206298828,
                -15.500003814697266
            ],
            "type" : "VEC3"
        },
        {
            "bufferView" : 8,
            "componentType" : 5126,
            "count" : 64,
            "max" : [
                0.0,
                1.0,
                -0.0
            ],
            "min" : [
                0.0,
                0.999969482421875,
                -0.0
            ],
            "type" : "VEC3"
        },
        {
            "bufferView" : 9,
            "componentType" : 5126,
            "count" : 64,
            "max" : [
                0.7378730773925781,
                0.7378723621368408
            ],
            "min" : [
                0.2621270418167114,
                0.26213037967681885
            ],
            "type" : "VEC2"
        },
        {
            "bufferView" : 10,
            "componentType" : 5123,
            "count" : 64,
            "max" : [
                0,
                0,
                0,
                0
            ],
            "min" : [
                0,
                0,
                0,
                0
            ],
            "type" : "VEC4"
        },
        {
            "bufferView" : 11,
            "componentType" : 5126,
            "count" : 64,
            "max" : [
                0.0,
                0.0,
                0.0,
                0.0
            ],
            "min" : [
                0.0,
                0.0,
                0.0,
                0.0
            ],
            "type" : "VEC4"
        },
        {
            "bufferView" : 12,
            "componentType" : 5123,
            "count" : 5472,
            "max" : [
                2289
            ],
            "min" : [
                0
            ],
            "type" : "SCALAR"
        },
        {
            "bufferView" : 13,
            "componentType" : 5126,
            "count" : 2290,
            "max" : [
                15.500009536743164,
                1.9686126708984375,
                15.499996185302734
            ],
            "min" : [
                -15.49998950958252,
                -93.0,
                -15.500003814697266
            ],
            "type" : "VEC3"
        },
        {
            "bufferView" : 14,
            "componentType" : 5126,
            "count" : 2290,
            "max" : [
                1.0,
                1.0,
                1.0
            ],
            "min" : [
                -1.0,
                -0.7159032225608826,
                -1.0
            ],
            "type" : "VEC3"
        },
        {
            "bufferView" : 15,
            "componentType" : 5126,
            "count" : 2290,
            "max" : [
                0.9611105918884277,
                0.9936584606766701
            ],
            "min" : [
                0.030401617288589478,
                0.009478867053985596
            ],
            "type" : "VEC2"
        },
        {
            "bufferView" : 16,
            "componentType" : 5123,
            "count" : 2290,
            "max" : [
                0,
                0,
                0,
                0
            ],
            "min" : [
                0,
                0,
                0,
                0
            ],
            "type" : "VEC4"
        },
        {
            "bufferView" : 17,
            "componentType" : 5126,
            "count" : 2290,
            "max" : [
                0.0,
                0.0,
                0.0,
                0.0
            ],
            "min" : [
                0.0,
                0.0,
                0.0,
                0.0
            ],
            "type" : "VEC4"
        },
        {
            "bufferView" : 18,
            "componentType" : 5123,
            "count" : 2880,
            "max" : [
                1983
            ],
            "min" : [
                0
            ],
            "type" : "SCALAR"
        },
        {
            "bufferView" : 19,
            "componentType" : 5126,
            "count" : 1984,
            "max" : [
                231.42047119140625,
                231.4204864501953,
                231.42054748535156
            ],
            "min" : [
                -231.42051696777344,
                -231.42054748535156,
                -231.42051696777344
            ],
            "type" : "VEC3"
        },
        {
            "bufferView" : 20,
            "componentType" : 5126,
            "count" : 1984,
            "max" : [
                0.9904383420944214,
                0.9951383471488953,
                0.9904382824897766
            ],
            "min" : [
                -0.9904382228851318,
                -0.99513840675354,
                -0.9904384016990662
            ],
            "type" : "VEC3"
        },
        {
            "bufferView" : 21,
            "componentType" : 5126,
            "count" : 1984,
            "max" : [
                0.9953598976135254,
                0.9947108626365662,
                0.9951290488243103,
                1.0
            ],
            "min" : [
                -0.8818013072013855,
                -0.9934088587760925,
                -0.6069594025611877,
                1.0
            ],
            "type" : "VEC4"
        },
        {
            "bufferView" : 22,
            "componentType" : 5126,
            "count" : 1984,
            "max" : [
                2.714629888534546,
                2.2341171503067017
            ],
            "min" : [
                -1.7146296501159668,
                -0.9938607215881348
            ],
            "type" : "VEC2"
        },
        {
            "bufferView" : 23,
            "componentType" : 5123,
            "count" : 708,
            "max" : [
                449
            ],
            "min" : [
                0
            ],
            "type" : "SCALAR"
        },
        {
            "bufferView" : 24,
            "componentType" : 5126,
            "count" : 450,
            "max" : [
                13.0,
                1.296934962272644,
                13.369625091552734
            ],
            "min" : [
                -13.0,
                -0.1529049277305603,
                -12.630373001098633
            ],
            "type" : "VEC3"
        },
        {
            "bufferView" : 25,
            "componentType" : 5126,
            "count" : 450,
            "max" : [
                0.9946705102920532,
                0.9999999403953552,
                0.9775537252426147
            ],
            "min" : [
                -0.9946705102920532,
                -1.0,
                -1.0
            ],
            "type" : "VEC3"
        },
        {
            "bufferView" : 26,
            "componentType" : 5126,
            "count" : 450,
            "max" : [
                0.9733160138130188,
                0.9980181287974119
            ],
            "min" : [
                0.0019818712025880814,
                0.0019819140434265137
            ],
            "type" : "VEC2"
        }
    ],
    "asset" : {
        "generator" : "Khronos Blender glTF 2.0 exporter",
        "version" : "2.0"
    },
    "bufferViews" : [
        {
            "buffer" : 0,
            "byteLength" : 186,
            "byteOffset" : 0,
            "target" : 34963
        },
        {
            "buffer" : 0,
            "byteLength" : 768,
            "byteOffset" : 188,
            "target" : 34962
        },
        {
            "buffer" : 0,
            "byteLength" : 768,
            "byteOffset" : 956,
            "target" : 34962
        },
        {
            "buffer" : 0,
            "byteLength" : 512,
            "byteOffset" : 1724,
            "target" : 34962
        },
        {
            "buffer" : 0,
            "byteLength" : 512,
            "byteOffset" : 2236,
            "target" : 34962
        },
        {
            "buffer" : 0,
            "byteLength" : 1024,
            "byteOffset" : 2748,
            "target" : 34962
        },
        {
            "buffer" : 0,
            "byteLength" : 186,
            "byteOffset" : 3772,
            "target" : 34963
        },
        {
            "buffer" : 0,
            "byteLength" : 768,
            "byteOffset" : 3960,
            "target" : 34962
        },
        {
            "buffer" : 0,
            "byteLength" : 768,
            "byteOffset" : 4728,
            "target" : 34962
        },
        {
            "buffer" : 0,
            "byteLength" : 512,
            "byteOffset" : 5496,
            "target" : 34962
        },
        {
            "buffer" : 0,
            "byteLength" : 512,
            "byteOffset" : 6008,
            "target" : 34962
        },
        {
            "buffer" : 0,
            "byteLength" : 1024,
            "byteOffset" : 6520,
            "target" : 34962
        },
        {
            "buffer" : 0,
            "byteLength" : 10944,
            "byteOffset" : 7544,
            "target" : 34963
        },
        {
            "buffer" : 0,
            "byteLength" : 27480,
            "byteOffset" : 18488,
            "target" : 34962
        },
        {
            "buffer" : 0,
            "byteLength" : 27480,
            "byteOffset" : 45968,
            "target" : 34962
        },
        {
            "buffer" : 0,
            "byteLength" : 18320,
            "byteOffset" : 73448,
            "target" : 34962
        },
        {
            "buffer" : 0,
            "byteLength" : 18320,
            "byteOffset" : 91768,
            "target" : 34962
        },
        {
            "buffer" : 0,
            "byteLength" : 36640,
            "byteOffset" : 110088,
            "target" : 34962
        },
        {
            "buffer" : 0,
            "byteLength" : 5760,
            "byteOffset" : 146728,
            "target" : 34963
        },
        {
            "buffer" : 0,
            "byteLength" : 23808,
            "byteOffset" : 152488,
            "target" : 34962
        },
        {
            "buffer" : 0,
            "byteLength" : 23808,
            "byteOffset" : 176296,
            "target" : 34962
        },
        {
            "buffer" : 0,
            "byteLength" : 31744,
            "byteOffset" : 200104,
            "target" : 34962
        },
        {
            "buffer" : 0,
            "byteLength" : 15872,
            "byteOffset" : 231848,
            "target" : 34962
        },
        {
            "buffer" : 0,
            "byteLength" : 1416,
            "byteOffset" : 247720,
            "target" : 34963
        },
        {
            "buffer" : 0,
            "byteLength" : 5400,
            "byteOffset" : 249136,
            "target" : 34962
        },
        {
            "buffer" : 0,
            "byteLength" : 5400,
            "byteOffset" : 254536,
            "target" : 34962
        },
        {
            "buffer" : 0,
            "byteLength" : 3600,
            "byteOffset" : 259936,
            "target" : 34962
        }
    ],
    "buffers" : [
        {
            "byteLength" : 263536,
            "uri" : "environment.bin"
        }
    ],
    "images" : [
        {
            "name" : "warehouse_bottom_base",
            "uri" : "warehouse_bottom_base.png"
        },
        {
            "name" : "warehouse_fan_base",
            "uri" : "warehouse_fan_base.png"
        },
        {
            "name" : "warehouse_grate_base",
            "uri" : "warehouse_grate_base.png"
        },
        {
            "name" : "space_base",
            "uri" : "space_base.png"
        },
        {
            "name" : "space_emissive",
            "uri" : "space_emissive.png"
        },
        {
            "name" : "warehouse_base",
            "uri" : "warehouse_base.png"
        },
        {
            "name" : "warehouse_roughness",
            "uri" : "warehouse_roughness.png"
        }
    ],
    "materials" : [
        {
            "name" : "m_bottom",
            "pbrMetallicRoughness" : {
                "baseColorTexture" : {
                    "index" : 0
                }
            }
        },
        {
            "name" : "m_fan",
            "pbrMetallicRoughness" : {
                "baseColorTexture" : {
                    "index" : 1
                }
            }
        },
        {
            "alphaMode" : "BLEND",
            "name" : "m_grate",
            "pbrMetallicRoughness" : {
                "baseColorTexture" : {
                    "index" : 2
                }
            }
        },
        {
            "emissiveFactor" : [
                1.0,
                1.0,
                1.0
            ],
            "emissiveTexture" : {
                "index" : 4
            },
            "name" : "m_space",
            "pbrMetallicRoughness" : {
                "baseColorTexture" : {
                    "index" : 3
                }
            }
        },
        {
            "name" : "m_warehouse",
            "pbrMetallicRoughness" : {
                "baseColorTexture" : {
                    "index" : 5
                },
                "metallicRoughnessTexture" : {
                    "index" : 6
                }
            }
        }
    ],
    "meshes" : [
        {
            "name" : "g_warehouse",
            "primitives" : [
                {
                    "attributes" : {
                        "JOINTS_0" : 4,
                        "NORMAL" : 2,
                        "POSITION" : 1,
                        "TEXCOORD_0" : 3,
                        "WEIGHTS_0" : 5
                    },
                    "indices" : 0,
                    "material" : 0
                },
                {
                    "attributes" : {
                        "JOINTS_0" : 10,
                        "NORMAL" : 8,
                        "POSITION" : 7,
                        "TEXCOORD_0" : 9,
                        "WEIGHTS_0" : 11
                    },
                    "indices" : 6,
                    "material" : 2
                },
                {
                    "attributes" : {
                        "JOINTS_0" : 16,
                        "NORMAL" : 14,
                        "POSITION" : 13,
                        "TEXCOORD_0" : 15,
                        "WEIGHTS_0" : 17
                    },
                    "indices" : 12,
                    "material" : 4
                }
            ]
        },
        {
            "name" : "g_space",
            "primitives" : [
                {
                    "attributes" : {
                        "NORMAL" : 20,
                        "POSITION" : 19,
                        "TANGENT" : 21,
                        "TEXCOORD_0" : 22
                    },
                    "indices" : 18,
                    "material" : 3
                }
            ]
        },
        {
            "name" : "g_fan",
            "primitives" : [
                {
                    "attributes" : {
                        "NORMAL" : 25,
                        "POSITION" : 24,
                        "TEXCOORD_0" : 26
                    },
                    "indices" : 23,
                    "material" : 1
                }
            ]
        }
    ],
    "nodes" : [
        {
            "mesh" : 2,
            "name" : "fan",
            "translation" : [
                0.0,
                -90.0,
                -0.0
            ]
        },
        {
            "mesh" : 1,
            "name" : "space"
        },
        {
            "children" : [
                0
            ],
            "mesh" : 0,
            "name" : "warehouse"
        }
    ],
    "samplers" : [
        {}
    ],
    "scene" : 0,
    "scenes" : [
        {
            "name" : "Scene",
            "nodes" : [
                2,
                1
            ]
        }
    ],
    "textures" : [
        {
            "sampler" : 0,
            "source" : 0
        },
        {
            "sampler" : 0,
            "source" : 1
        },
        {
            "sampler" : 0,
            "source" : 2
        },
        {
            "sampler" : 0,
            "source" : 3
        },
        {
            "sampler" : 0,
            "source" : 4
        },
        {
            "sampler" : 0,
            "source" : 5
        },
        {
            "sampler" : 0,
            "source" : 6
        }
    ]
}
