{
    "accessors" : [
        {
            "bufferView" : 0,
            "componentType" : 5121,
            "count" : 6,
            "max" : [
                3
            ],
            "min" : [
                0
            ],
            "type" : "SCALAR"
        },
        {
            "bufferView" : 1,
            "componentType" : 5126,
            "count" : 4,
            "max" : [
                150.0,
                -66.15855407714844,
                183.70640563964844
            ],
            "min" : [
                -150.0,
                -168.7646026611328,
                -98.20137023925781
            ],
            "type" : "VEC3"
        },
        {
            "bufferView" : 2,
            "componentType" : 5126,
            "count" : 4,
            "max" : [
                0.0,
                0.9396926164627075,
                -0.3420201539993286
            ],
            "min" : [
                0.0,
                0.9396926164627075,
                -0.3420201539993286
            ],
            "type" : "VEC3"
        },
        {
            "bufferView" : 3,
            "componentType" : 5126,
            "count" : 4,
            "max" : [
                1.0,
                0.0,
                -0.0,
                1.0
            ],
            "min" : [
                1.0,
                0.0,
                -0.0,
                1.0
            ],
            "type" : "VEC4"
        },
        {
            "bufferView" : 4,
            "componentType" : 5126,
            "count" : 4,
            "max" : [
                1.425112247467041,
                0.9251122623682022
            ],
            "min" : [
                0.07488773763179779,
                -0.425112247467041
            ],
            "type" : "VEC2"
        },
        {
            "bufferView" : 5,
            "componentType" : 5123,
            "count" : 708,
            "max" : [
                449
            ],
            "min" : [
                0
            ],
            "type" : "SCALAR"
        },
        {
            "bufferView" : 6,
            "componentType" : 5126,
            "count" : 450,
            "max" : [
                13.0,
                1.296934962272644,
                13.369625091552734
            ],
            "min" : [
                -13.0,
                -0.1529049277305603,
                -12.630373001098633
            ],
            "type" : "VEC3"
        },
        {
            "bufferView" : 7,
            "componentType" : 5126,
            "count" : 450,
            "max" : [
                0.9946705102920532,
                0.9999999403953552,
                0.9775537252426147
            ],
            "min" : [
                -0.9946705102920532,
                -1.0,
                -1.0
            ],
            "type" : "VEC3"
        },
        {
            "bufferView" : 8,
            "componentType" : 5126,
            "count" : 450,
            "max" : [
                0.9733160138130188,
                0.9980181287974119
            ],
            "min" : [
                0.0019818712025880814,
                0.0019819140434265137
            ],
            "type" : "VEC2"
        },
        {
            "bufferView" : 9,
            "componentType" : 5123,
            "count" : 5472,
            "max" : [
                2289
            ],
            "min" : [
                0
            ],
            "type" : "SCALAR"
        },
        {
            "bufferView" : 10,
            "componentType" : 5126,
            "count" : 2290,
            "max" : [
                15.500009536743164,
                1.9686126708984375,
                15.499996185302734
            ],
            "min" : [
                -15.49998950958252,
                -93.0,
                -15.500003814697266
            ],
            "type" : "VEC3"
        },
        {
            "bufferView" : 11,
            "componentType" : 5126,
            "count" : 2290,
            "max" : [
                1.0,
                1.0,
                1.0
            ],
            "min" : [
                -1.0,
                -0.7159032225608826,
                -1.0
            ],
            "type" : "VEC3"
        },
        {
            "bufferView" : 12,
            "componentType" : 5126,
            "count" : 2290,
            "max" : [
                0.9611105918884277,
                0.9936584606766701
            ],
            "min" : [
                0.030401617288589478,
                0.009478867053985596
            ],
            "type" : "VEC2"
        },
        {
            "bufferView" : 13,
            "componentType" : 5123,
            "count" : 2290,
            "max" : [
                0,
                0,
                0,
                0
            ],
            "min" : [
                0,
                0,
                0,
                0
            ],
            "type" : "VEC4"
        },
        {
            "bufferView" : 14,
            "componentType" : 5126,
            "count" : 2290,
            "max" : [
                0.0,
                0.0,
                0.0,
                0.0
            ],
            "min" : [
                0.0,
                0.0,
                0.0,
                0.0
            ],
            "type" : "VEC4"
        },
        {
            "bufferView" : 15,
            "componentType" : 5121,
            "count" : 186,
            "max" : [
                63
            ],
            "min" : [
                0
            ],
            "type" : "SCALAR"
        },
        {
            "bufferView" : 16,
            "componentType" : 5126,
            "count" : 64,
            "max" : [
                15.500009536743164,
                -93.0,
                15.499996185302734
            ],
            "min" : [
                -15.49998950958252,
                -93.0,
                -15.500003814697266
            ],
            "type" : "VEC3"
        },
        {
            "bufferView" : 17,
            "componentType" : 5126,
            "count" : 64,
            "max" : [
                0.0,
                1.0,
                -0.0
            ],
            "min" : [
                0.0,
                0.999969482421875,
                -0.0
            ],
            "type" : "VEC3"
        },
        {
            "bufferView" : 18,
            "componentType" : 5126,
            "count" : 64,
            "max" : [
                0.7046089172363281,
                0.7046085000038147
            ],
            "min" : [
                0.29539117217063904,
                0.2953941822052002
            ],
            "type" : "VEC2"
        },
        {
            "bufferView" : 19,
            "componentType" : 5123,
            "count" : 64,
            "max" : [
                0,
                0,
                0,
                0
            ],
            "min" : [
                0,
                0,
                0,
                0
            ],
            "type" : "VEC4"
        },
        {
            "bufferView" : 20,
            "componentType" : 5126,
            "count" : 64,
            "max" : [
                0.0,
                0.0,
                0.0,
                0.0
            ],
            "min" : [
                0.0,
                0.0,
                0.0,
                0.0
            ],
            "type" : "VEC4"
        },
        {
            "bufferView" : 21,
            "componentType" : 5121,
            "count" : 186,
            "max" : [
                63
            ],
            "min" : [
                0
            ],
            "type" : "SCALAR"
        },
        {
            "bufferView" : 22,
            "componentType" : 5126,
            "count" : 64,
            "max" : [
                15.500009536743164,
                -83.21430206298828,
                15.499996185302734
            ],
            "min" : [
                -15.49998950958252,
                -83.21430206298828,
                -15.500003814697266
            ],
            "type" : "VEC3"
        },
        {
            "bufferView" : 23,
            "componentType" : 5126,
            "count" : 64,
            "max" : [
                0.0,
                1.0,
                -0.0
            ],
            "min" : [
                0.0,
                0.999969482421875,
                -0.0
            ],
            "type" : "VEC3"
        },
        {
            "bufferView" : 24,
            "componentType" : 5126,
            "count" : 64,
            "max" : [
                0.7378730773925781,
                0.7378723621368408
            ],
            "min" : [
                0.2621270418167114,
                0.26213037967681885
            ],
            "type" : "VEC2"
        },
        {
            "bufferView" : 25,
            "componentType" : 5123,
            "count" : 64,
            "max" : [
                0,
                0,
                0,
                0
            ],
            "min" : [
                0,
                0,
                0,
                0
            ],
            "type" : "VEC4"
        },
        {
            "bufferView" : 26,
            "componentType" : 5126,
            "count" : 64,
            "max" : [
                0.0,
                0.0,
                0.0,
                0.0
            ],
            "min" : [
                0.0,
                0.0,
                0.0,
                0.0
            ],
            "type" : "VEC4"
        }
    ],
    "asset" : {
        "generator" : "Khronos Blender glTF 2.0 exporter",
        "version" : "2.0"
    },
    "bufferViews" : [
        {
            "buffer" : 0,
            "byteLength" : 6,
            "byteOffset" : 0,
            "target" : 34963
        },
        {
            "buffer" : 0,
            "byteLength" : 48,
            "byteOffset" : 8,
            "target" : 34962
        },
        {
            "buffer" : 0,
            "byteLength" : 48,
            "byteOffset" : 56,
            "target" : 34962
        },
        {
            "buffer" : 0,
            "byteLength" : 64,
            "byteOffset" : 104,
            "target" : 34962
        },
        {
            "buffer" : 0,
            "byteLength" : 32,
            "byteOffset" : 168,
            "target" : 34962
        },
        {
            "buffer" : 0,
            "byteLength" : 1416,
            "byteOffset" : 200,
            "target" : 34963
        },
        {
            "buffer" : 0,
            "byteLength" : 5400,
            "byteOffset" : 1616,
            "target" : 34962
        },
        {
            "buffer" : 0,
            "byteLength" : 5400,
            "byteOffset" : 7016,
            "target" : 34962
        },
        {
            "buffer" : 0,
            "byteLength" : 3600,
            "byteOffset" : 12416,
            "target" : 34962
        },
        {
            "buffer" : 0,
            "byteLength" : 10944,
            "byteOffset" : 16016,
            "target" : 34963
        },
        {
            "buffer" : 0,
            "byteLength" : 27480,
            "byteOffset" : 26960,
            "target" : 34962
        },
        {
            "buffer" : 0,
            "byteLength" : 27480,
            "byteOffset" : 54440,
            "target" : 34962
        },
        {
            "buffer" : 0,
            "byteLength" : 18320,
            "byteOffset" : 81920,
            "target" : 34962
        },
        {
            "buffer" : 0,
            "byteLength" : 18320,
            "byteOffset" : 100240,
            "target" : 34962
        },
        {
            "buffer" : 0,
            "byteLength" : 36640,
            "byteOffset" : 118560,
            "target" : 34962
        },
        {
            "buffer" : 0,
            "byteLength" : 186,
            "byteOffset" : 155200,
            "target" : 34963
        },
        {
            "buffer" : 0,
            "byteLength" : 768,
            "byteOffset" : 155388,
            "target" : 34962
        },
        {
            "buffer" : 0,
            "byteLength" : 768,
            "byteOffset" : 156156,
            "target" : 34962
        },
        {
            "buffer" : 0,
            "byteLength" : 512,
            "byteOffset" : 156924,
            "target" : 34962
        },
        {
            "buffer" : 0,
            "byteLength" : 512,
            "byteOffset" : 157436,
            "target" : 34962
        },
        {
            "buffer" : 0,
            "byteLength" : 1024,
            "byteOffset" : 157948,
            "target" : 34962
        },
        {
            "buffer" : 0,
            "byteLength" : 186,
            "byteOffset" : 158972,
            "target" : 34963
        },
        {
            "buffer" : 0,
            "byteLength" : 768,
            "byteOffset" : 159160,
            "target" : 34962
        },
        {
            "buffer" : 0,
            "byteLength" : 768,
            "byteOffset" : 159928,
            "target" : 34962
        },
        {
            "buffer" : 0,
            "byteLength" : 512,
            "byteOffset" : 160696,
            "target" : 34962
        },
        {
            "buffer" : 0,
            "byteLength" : 512,
            "byteOffset" : 161208,
            "target" : 34962
        },
        {
            "buffer" : 0,
            "byteLength" : 1024,
            "byteOffset" : 161720,
            "target" : 34962
        }
    ],
    "buffers" : [
        {
            "byteLength" : 162744,
            "uri" : "environment.bin"
        }
    ],
    "images" : [
        {
            "name" : "warehouse_bottom_base",
            "uri" : "warehouse_bottom_base.png"
        },
        {
            "name" : "warehouse_fan_base",
            "uri" : "warehouse_fan_base.png"
        },
        {
            "name" : "warehouse_grate_base",
            "uri" : "warehouse_grate_base.png"
        },
        {
            "name" : "space_base",
            "uri" : "space_base.png"
        },
        {
            "name" : "space_emissive",
            "uri" : "space_emissive.png"
        },
        {
            "name" : "warehouse_base",
            "uri" : "warehouse_base.png"
        },
        {
            "name" : "warehouse_roughness",
            "uri" : "warehouse_roughness.png"
        }
    ],
    "materials" : [
        {
            "name" : "m_bottom",
            "pbrMetallicRoughness" : {
                "baseColorTexture" : {
                    "index" : 0
                }
            }
        },
        {
            "name" : "m_fan",
            "pbrMetallicRoughness" : {
                "baseColorTexture" : {
                    "index" : 1
                }
            }
        },
        {
            "alphaMode" : "BLEND",
            "name" : "m_grate",
            "pbrMetallicRoughness" : {
                "baseColorTexture" : {
                    "index" : 2
                }
            }
        },
        {
            "emissiveFactor" : [
                1.0,
                1.0,
                1.0
            ],
            "emissiveTexture" : {
                "index" : 4
            },
            "name" : "m_space",
            "pbrMetallicRoughness" : {
                "baseColorTexture" : {
                    "index" : 3
                }
            }
        },
        {
            "name" : "m_warehouse",
            "pbrMetallicRoughness" : {
                "baseColorTexture" : {
                    "index" : 5
                },
                "metallicRoughnessTexture" : {
                    "index" : 6
                }
            }
        }
    ],
    "meshes" : [
        {
            "name" : "g_space",
            "primitives" : [
                {
                    "attributes" : {
                        "NORMAL" : 2,
                        "POSITION" : 1,
                        "TANGENT" : 3,
                        "TEXCOORD_0" : 4
                    },
                    "indices" : 0,
                    "material" : 3
                }
            ]
        },
        {
            "name" : "g_fan",
            "primitives" : [
                {
                    "attributes" : {
                        "NORMAL" : 7,
                        "POSITION" : 6,
                        "TEXCOORD_0" : 8
                    },
                    "indices" : 5,
                    "material" : 1
                }
            ]
        },
        {
            "name" : "g_warehouse",
            "primitives" : [
                {
                    "attributes" : {
                        "JOINTS_0" : 13,
                        "NORMAL" : 11,
                        "POSITION" : 10,
                        "TEXCOORD_0" : 12,
                        "WEIGHTS_0" : 14
                    },
                    "indices" : 9,
                    "material" : 4
                },
                {
                    "attributes" : {
                        "JOINTS_0" : 19,
                        "NORMAL" : 17,
                        "POSITION" : 16,
                        "TEXCOORD_0" : 18,
                        "WEIGHTS_0" : 20
                    },
                    "indices" : 15,
                    "material" : 0
                },
                {
                    "attributes" : {
                        "JOINTS_0" : 25,
                        "NORMAL" : 23,
                        "POSITION" : 22,
                        "TEXCOORD_0" : 24,
                        "WEIGHTS_0" : 26
                    },
                    "indices" : 21,
                    "material" : 2
                }
            ]
        }
    ],
    "nodes" : [
        {
            "mesh" : 1,
            "name" : "fan",
            "translation" : [
                0.0,
                -90.0,
                -0.0
            ]
        },
        {
            "mesh" : 0,
            "name" : "space"
        },
        {
            "children" : [
                0
            ],
            "mesh" : 2,
            "name" : "warehouse"
        }
    ],
    "samplers" : [
        {}
    ],
    "scene" : 0,
    "scenes" : [
        {
            "name" : "Scene",
            "nodes" : [
                2,
                1
            ]
        }
    ],
    "textures" : [
        {
            "sampler" : 0,
            "source" : 0
        },
        {
            "sampler" : 0,
            "source" : 1
        },
        {
            "sampler" : 0,
            "source" : 2
        },
        {
            "sampler" : 0,
            "source" : 3
        },
        {
            "sampler" : 0,
            "source" : 4
        },
        {
            "sampler" : 0,
            "source" : 5
        },
        {
            "sampler" : 0,
            "source" : 6
        }
    ]
}
